<svg width="158" height="204" viewBox="0 0 158 204" fill="none" xmlns="http://www.w3.org/2000/svg">
<path d="M96.0442 115.645C94.2375 116.048 92.4779 116.797 90.8746 117.844C86.6976 120.504 84.2681 124.304 85.4484 126.33C86.6287 128.356 90.9715 127.841 95.1485 125.181C96.7734 124.171 98.2168 122.88 99.3898 121.388C99.9341 120.667 100.032 119.768 99.6388 119.096L98.1055 116.464C97.7154 115.79 96.9064 115.469 96.0442 115.645Z" fill="#D5D6DB"/>
<path d="M85.5541 79.7397C84.244 80.0326 82.968 80.5758 81.8053 81.3349C78.7773 83.2634 77.0146 86.0185 77.8697 87.4864C78.7248 88.9544 81.8751 88.5804 84.9028 86.6521C86.081 85.9196 87.1275 84.9832 87.9782 83.9011C88.3725 83.3785 88.443 82.7274 88.1582 82.2401L87.048 80.3343C86.7655 79.8455 86.1793 79.6122 85.5541 79.7397Z" fill="#D5D6DB"/>
<path d="M68.5096 81.2338C68.218 81.2011 67.907 81.2786 67.6373 81.4508L60.5247 85.9811C59.9298 86.3589 59.6919 87.087 59.9938 87.6077C60.0629 87.727 60.1574 87.829 60.2721 87.9075L77.8087 100.007L101.526 84.9005L68.5096 81.2338Z" fill="#029BC5"/>
<path d="M143.499 79.552L78.9489 120.18L40.7568 135.365L21.2783 139.227L19.1343 135.582L126.73 69.1642C129.937 67.1763 133.509 65.9572 137.086 65.6306C138.652 65.4959 140.199 65.549 141.691 65.788C143.013 65.9895 144.268 66.3773 145.417 66.9399C146.699 67.5773 149.14 67.6522 149.93 68.9211C149.933 68.9191 151.8 74.7433 143.499 79.552Z" fill="#E1E6E9"/>
<path d="M79.798 114.785L51.8813 159.313C51.5327 159.938 51.7399 160.639 52.3438 160.878C52.7143 161.025 53.1678 160.967 53.5488 160.725L60.6563 156.218C62.0234 155.35 63.2337 154.248 64.2126 152.98L118.358 89.3057L79.798 114.785Z" fill="#029BC5"/>
<path d="M9.33041 113.302C8.86454 113.142 8.31021 113.225 7.84233 113.522L1.9677 117.262C1.16724 117.771 0.848477 118.75 1.25548 119.45C1.33303 119.583 1.43375 119.7 1.55446 119.796L18.0201 132.995L35.3255 122.192L9.33041 113.302Z" fill="#029BC5"/>
<path d="M23.5337 135.365L14.6756 147.776C14.5457 147.955 14.5763 148.179 14.7439 148.277C14.8648 148.347 15.0297 148.334 15.1638 148.245L20.6544 144.766C20.697 144.739 20.7357 144.706 20.7676 144.667L33.7114 128.924L23.5337 135.365Z" fill="#029BC5"/>
<path d="M140.634 66.3185C139.098 66.0707 137.505 66.017 135.892 66.1579C134.322 68.354 133.318 70.8214 132.982 73.3141C132.958 73.8148 133.361 74.1755 133.884 74.1198C134.046 74.1022 134.208 74.0452 134.353 73.9538L144.471 67.514C143.288 66.9296 141.996 66.5271 140.634 66.3185Z" fill="#029BC5"/>
<path d="M118.582 78.1611L125.187 73.9927L131.343 84.4636L124.738 88.632L118.582 78.1611Z" fill="#D5D6DB"/>
<path d="M114.424 82.3062C113.628 82.81 113.311 83.7793 113.715 84.4709L114.37 85.5914C114.801 86.2654 115.784 86.3846 116.566 85.8574C117.311 85.3553 117.61 84.4421 117.251 83.7674L116.596 82.6469C116.192 81.9558 115.22 81.8032 114.424 82.3062Z" fill="#3A556A"/>
<path d="M108.486 85.9927C107.69 86.4965 107.373 87.4658 107.777 88.1574L108.432 89.2779C108.863 89.9519 109.846 90.0711 110.628 89.5439C111.373 89.0418 111.672 88.1286 111.313 87.4539L110.658 86.3334C110.254 85.6426 109.282 85.4899 108.486 85.9927Z" fill="#3A556A"/>
<path d="M102.546 89.6842C101.751 90.1887 101.434 91.1568 101.838 91.8478L102.493 92.9683C102.924 93.6423 103.908 93.7614 104.69 93.2343C105.434 92.7322 105.734 91.819 105.375 91.1443L104.72 90.0238C104.315 89.3322 103.342 89.1802 102.546 89.6842Z" fill="#3A556A"/>
<path d="M96.6081 93.3698C95.813 93.8743 95.4963 94.8424 95.9003 95.5334L96.5554 96.6539C96.9863 97.3279 97.9695 97.4471 98.7518 96.9199C99.4962 96.4178 99.7958 95.5046 99.4368 94.8299L98.7817 93.7094C98.377 93.018 97.404 92.8659 96.6081 93.3698Z" fill="#3A556A"/>
<path d="M90.6703 97.0588C89.8748 97.5635 89.5579 98.5321 89.9621 99.2234L90.6176 100.344C91.0216 101.035 91.9942 101.187 92.7899 100.684C93.5856 100.18 93.9031 99.2116 93.499 98.5206L92.8435 97.3997C92.4405 96.708 91.4682 96.555 90.672 97.0578C90.6713 97.0582 90.671 97.0584 90.6703 97.0588Z" fill="#3A556A"/>
<path d="M84.7325 100.744C83.9369 101.249 83.62 102.218 84.0242 102.909L84.6797 104.03C85.0838 104.721 86.0564 104.873 86.8521 104.369C87.6478 103.866 87.9652 102.897 87.5611 102.206L86.9057 101.085C86.5026 100.394 85.5303 100.241 84.7341 100.743C84.7335 100.744 84.7328 100.744 84.7325 100.744Z" fill="#3A556A"/>
<path d="M78.7937 104.435C77.9982 104.94 77.6813 105.908 78.0855 106.599L78.741 107.72C79.146 108.411 80.1191 108.561 80.9139 108.057C81.7074 107.553 82.0242 106.587 81.622 105.897L80.9665 104.776C80.5626 104.084 79.5901 103.932 78.7937 104.435Z" fill="#3A556A"/>
<path d="M72.8554 108.121C72.0599 108.626 71.7429 109.595 72.1472 110.286L72.8026 111.407C73.2077 112.097 74.1807 112.248 74.9756 111.743C75.769 111.24 76.0858 110.274 75.6836 109.583L75.0282 108.462C74.6243 107.771 73.6517 107.618 72.8554 108.121Z" fill="#3A556A"/>
<path d="M66.9174 111.809C66.1219 112.314 65.8049 113.282 66.2092 113.973L66.8646 115.094C67.2697 115.785 68.2428 115.935 69.0376 115.431C69.8311 114.927 70.1479 113.961 69.7457 113.271L69.0902 112.15C68.686 111.459 67.7134 111.306 66.9174 111.809Z" fill="#3A556A"/>
<path d="M60.9773 115.499C60.1816 116.003 59.8642 116.971 60.2682 117.662L60.2691 117.664L60.9246 118.785C61.3296 119.475 62.3027 119.626 63.0975 119.121C63.891 118.618 64.2078 117.651 63.8056 116.961L63.1501 115.84C62.7462 115.149 61.7737 114.996 60.9773 115.499Z" fill="#3A556A"/>
<path d="M55.0407 119.185C54.245 119.688 53.9275 120.657 54.3316 121.348L54.3325 121.349L54.9879 122.47C55.393 123.161 56.3661 123.311 57.1609 122.807C57.9544 122.303 58.2712 121.337 57.869 120.647L57.2135 119.526C56.8093 118.835 55.8367 118.682 55.0407 119.185Z" fill="#3A556A"/>
</svg>
