<svg width="19" height="19" viewBox="0 0 19 19" fill="none" xmlns="http://www.w3.org/2000/svg">
<g clip-path="url(#clip0_302_2071)">
<path d="M18.3296 0.0576172C18.2263 0.0575783 18.1244 0.0815824 18.032 0.127759L12.9923 2.64831L7.29345 0.115134C7.28414 0.111159 7.2735 0.110458 7.26353 0.106483C7.23788 0.0968968 7.21166 0.0889084 7.18504 0.0825566C7.15858 0.0754255 7.1317 0.0698531 7.10458 0.0659174C7.05057 0.061475 6.99628 0.061475 6.94231 0.0659174C6.91519 0.0698531 6.8883 0.0754255 6.86185 0.0825566C6.83523 0.0889084 6.809 0.0968968 6.78336 0.106483C6.77339 0.110458 6.76275 0.11112 6.75344 0.115134L0.76798 2.77535C0.527705 2.88204 0.372886 3.12029 0.372925 3.38317V18.0143C0.373042 18.2393 0.486867 18.449 0.67551 18.5716C0.864192 18.6944 1.10217 18.7135 1.30796 18.6222L7.02341 16.0816L12.7389 18.6222C12.7488 18.6261 12.7595 18.6222 12.7694 18.6282C12.9305 18.7002 13.1153 18.696 13.2729 18.6169C13.2835 18.6122 13.2955 18.6169 13.3061 18.6095L18.6265 15.9493C18.852 15.8367 18.9944 15.6062 18.9943 15.3541V0.722993C18.9945 0.355682 18.6969 0.0577731 18.3296 0.0576172ZM6.35838 14.9218L1.70301 16.9908V3.81548L6.35838 1.74648V14.9218ZM12.3438 16.9908L7.68847 14.9218V1.74648L12.3438 3.81544V16.9908ZM17.6642 14.9431L13.6739 16.9382V3.79416L17.6642 1.79901V14.9431Z" fill="#84829A"/>
</g>
<defs>
<clipPath id="clip0_302_2071">
<rect width="18.6217" height="18.6217" fill="white" transform="translate(0.37146 0.0556641)"/>
</clipPath>
</defs>
</svg>
